<?xml version="1.0" encoding="utf-8"?>
<!-- Generator: Adobe Illustrator 26.1.0, SVG Export Plug-In . SVG Version: 6.00 Build 0)  -->
<svg version="1.1" id="Layer_1" xmlns="http://www.w3.org/2000/svg" xmlns:xlink="http://www.w3.org/1999/xlink" x="0px" y="0px"
	 viewBox="0 0 500 500" style="enable-background:new 0 0 500 500;" xml:space="preserve">
<style type="text/css">
	.st0{fill:#1BB3DB;}
</style>
<path class="st0" d="M142.8,0C64.1,0,0,63.2,0,140.9c0,23.8,6.2,47.1,17.8,67.8c-2.7,14.4-4.1,29.2-4.1,43.8
	c0,130,107,235.6,238.8,235.6c13.5,0,27-0.9,40.3-3.1c19.8,9.9,42,15,64.4,15c78.7,0,142.8-63.2,142.8-140.9
	c0-20.9-4.6-40.8-13.4-59.4c3.2-15.4,5-31.2,5-47.2c0-130-107.3-235.6-239.1-235.6c-12.4,0-24.9,0.9-37.2,2.8
	C193.4,6.8,168.5,0,142.8,0z M250.9,93.8c20.5,0,38.4,2.2,53.4,6.9c15.1,4.6,27.9,10.7,37.8,18.4c10.1,7.8,17.8,16.1,22.5,24.7
	c4.8,8.7,7.2,17.6,7.2,25.9c0,8.1-3.4,15.2-9.7,21.6s-14.1,9.7-23.4,9.7c-8.5,0-15.1-2-19.7-5.9c-4.3-3.8-8.8-9.5-13.8-17.8
	c-5.7-10.7-12.4-19.4-20.3-25.3c-7.7-5.7-20.8-8.4-38.4-8.4c-16.4,0-29.8,3-39.7,9.4c-9.6,6.2-14.1,13.5-14.1,21.9
	c0,5.2,1.6,9.4,4.7,13.1c3.3,3.9,7.6,7.1,13.4,10c6,3,12.2,5.5,18.4,7.2c6.4,1.7,17.2,4.5,31.9,7.8c18.5,3.9,35.5,8.1,50.6,12.8
	c15.2,4.8,28.3,10.9,39.1,17.8c10.9,7,19.8,16.1,25.9,26.9s9.1,24.1,9.1,39.7c0,18.6-5.3,35.5-15.9,50.3
	c-10.6,14.8-26.3,26.7-46.6,35c-20.1,8.2-44.2,12.2-71.6,12.2c-32.9,0-60.4-5.6-81.9-16.9c-15.4-8.2-28.2-19.5-37.8-33.1
	c-9.8-13.8-14.7-27.4-14.7-40.6c0-8.2,3.4-15.4,9.7-21.2c6.3-5.8,14.2-8.8,23.8-8.8c7.9,0,14.8,2.3,20.3,6.9
	c5.3,4.4,9.8,11,13.4,19.4c4.1,9.2,8.4,16.7,13.1,22.8c4.5,5.8,10.8,10.9,19.1,14.7c8.3,3.9,19.6,5.9,33.4,5.9
	c18.9,0,34.3-4,45.9-11.9c11.4-7.7,17.2-16.8,17.2-28.1c0-8.9-3.1-16.1-9.1-21.6c-6.2-5.7-14.5-10.1-24.4-13.1
	c-10.4-3.2-24.4-6.7-41.9-10.3c-23.8-5-43.9-11.1-60-17.8c-16.4-6.9-29.7-16.5-39.4-28.4c-9.8-12.1-15-27.1-15-45
	c0-17.1,5.3-32.7,15.6-45.9c10.2-13.1,25.1-23.3,44.4-30.3C202.7,97.1,225.4,93.8,250.9,93.8z"/>
</svg>
