<?xml version="1.0" encoding="utf-8"?>
<!-- Generator: Adobe Illustrator 26.1.0, SVG Export Plug-In . SVG Version: 6.00 Build 0)  -->
<svg version="1.1" id="Layer_1" xmlns="http://www.w3.org/2000/svg" xmlns:xlink="http://www.w3.org/1999/xlink" x="0px" y="0px"
	 viewBox="0 0 500 500" style="enable-background:new 0 0 500 500;" xml:space="preserve">
<style type="text/css">
	.st0{fill:#12D812;}
</style>
<path class="st0" d="M10,90c-5.5,0-10,4.5-10,10v141.2c0,61.6,46.8,115.2,108.3,118.7c59,3.3,109.1-38,119.6-93.3
	c5.7,7.7,11.5,14.9,17.3,21.4L210,437.7c-0.7,3,0,6.1,1.9,8.5c1.9,2.4,4.8,3.8,7.9,3.8H271c4.6,0,8.6-3.1,9.7-7.6
	c6.2-26.2,15.9-67.3,24.8-104.5l9.1,5.3c21.7,11.2,43.6,16.9,65.5,16.9c71.9,0,129.3-63.6,118.8-137.5c-7-49-44.6-89.3-92.9-99.7
	c-56.3-12.1-110.5,16.7-133.9,64.7c0,0-2.6,5.7-4.7,11.5c-16.5-28.5-26.2-58-31.3-79.4c-1.8-7.8-4.6-21.9-4.9-22.8
	c-1.4-4-5.2-6.7-9.4-6.7H170c-5.5,0-10,4.5-10,10v143c0,23.5-17.1,44.5-40.5,46.8C92.7,292.4,70,271.3,70,245V100
	c0-5.5-4.5-10-10-10H10z M380,190c27.6,0,50,22.4,50,50s-22.4,50-50,50c-22.2,0-42.9-13.4-57.3-25.1c5.3-22.2,8.8-37.2,8.9-37.4
	C337.2,205.4,357.2,190,380,190z"/>
</svg>
