<?xml version="1.0" encoding="utf-8"?>
<!-- Generator: Adobe Illustrator 26.1.0, SVG Export Plug-In . SVG Version: 6.00 Build 0)  -->
<svg version="1.1" id="Layer_1" xmlns="http://www.w3.org/2000/svg" xmlns:xlink="http://www.w3.org/1999/xlink" x="0px" y="0px"
	 viewBox="0 0 500 500" style="enable-background:new 0 0 500 500;" xml:space="preserve">
<style type="text/css">
	.st0{fill:#8D14C6;}
</style>
<path class="st0" d="M416.2,107.7c-39.8-32-102.8-37.5-105.5-37.7c-4.2-0.4-8.2,2-9.9,5.9c-0.2,0.2-1.5,3.4-3,8.3
	c26.3,4.5,58.7,13.4,87.9,31.6c4.7,2.9,6.1,9.1,3.2,13.8c-1.9,3.1-5.2,4.8-8.5,4.8c-1.8,0-3.6-0.5-5.3-1.5
	C324.9,101.6,262.1,100,250,100s-75,1.6-125.2,32.8c-4.7,2.9-10.9,1.5-13.8-3.2c-2.9-4.7-1.5-10.9,3.2-13.8
	c29.3-18.1,61.6-27.1,87.9-31.5c-1.5-5-2.9-8.1-3-8.4c-1.8-3.9-5.7-6.3-9.9-5.9c-2.7,0.2-65.7,5.6-106,38.1
	C62.1,127.6,20,241.5,20,340c0,1.8,0.5,3.4,1.3,5c29.1,51.1,108.4,64.5,126.5,65c0.1,0,0.2,0,0.3,0c3.2,0,6.2-1.5,8.1-4.1l18.3-25.2
	c-49.3-12.7-74.5-34.4-76-35.7c-4.1-3.6-4.5-10-0.9-14.1c3.6-4.1,10-4.5,14.1-0.9c0.6,0.5,47,39.9,138.2,39.9
	c91.4,0,137.8-39.5,138.3-39.9c4.1-3.6,10.4-3.2,14.1,0.9c3.6,4.1,3.2,10.4-0.9,14.1c-1.4,1.3-26.6,22.9-76,35.7l18.3,25.2
	c1.9,2.6,4.9,4.1,8.1,4.1c0.1,0,0.2,0,0.3,0c18.1-0.6,97.4-13.9,126.5-65c0.9-1.5,1.3-3.2,1.3-5C480,241.5,437.9,127.6,416.2,107.7z
	 M185,300c-19.3,0-35-17.9-35-40s15.7-40,35-40s35,17.9,35,40S204.3,300,185,300z M315,300c-19.3,0-35-17.9-35-40s15.7-40,35-40
	s35,17.9,35,40S334.3,300,315,300z"/>
</svg>
